<svg width="22" height="22" viewBox="0 0 22 22" fill="none" xmlns="http://www.w3.org/2000/svg">
<path fill-rule="evenodd" clip-rule="evenodd" d="M10.481 10.1031C10.9771 9.81671 11.6122 9.98691 11.8986 10.4829C12.185 10.979 12.0149 11.6141 11.5188 11.9005C11.0227 12.1869 10.3876 12.0168 10.1012 11.5207C9.81481 11.0246 9.98501 10.3895 10.481 10.1031ZM12.7272 13.9936L5.01631 14.4564L9.27261 8.01001L16.9835 7.54721L12.7272 13.9936ZM18.1527 6.22871L8.88761 6.78481C8.69071 6.79661 8.51271 6.89941 8.40411 7.06401L3.28989 14.8097C3.16038 15.0067 3.15327 15.2601 3.27105 15.4641C3.38884 15.6681 3.6118 15.7886 3.84716 15.7749L13.1123 15.2188C13.2104 15.2124 13.304 15.1836 13.3867 15.1358C13.4694 15.0881 13.5412 15.0215 13.5958 14.9397L18.7099 7.19391C18.8395 6.99691 18.8466 6.74351 18.7288 6.53951C18.611 6.33551 18.388 6.21501 18.1527 6.22871ZM15.8773 19.4496C11.2184 22.1394 5.24141 20.5372 2.55209 15.8792C-0.137202 11.2212 1.46367 5.24381 6.12261 2.55398C10.7814 -0.135831 16.7585 1.46646 19.4477 6.12441C22.137 10.7824 20.5362 16.7598 15.8773 19.4496ZM5.49991 1.47553C0.246988 4.50832 -1.55914 11.2489 1.47364 16.5018C4.50643 21.7547 11.247 23.5609 16.4999 20.5281C21.7528 17.4953 23.559 10.7547 20.5262 5.50181C17.4934 0.248879 10.7528 -1.55725 5.49991 1.47553Z" fill="#4995EC"/>
</svg>
