<svg width="22" height="16" viewBox="0 0 22 16" fill="none" xmlns="http://www.w3.org/2000/svg">
<g clip-path="url(#clip0_172_16)">
<path fill-rule="evenodd" clip-rule="evenodd" d="M15.6436 6.41549C15.6436 6.7662 15.3644 7.0493 15.0209 7.0493H13.9831C13.6396 7.0493 13.3615 6.7662 13.3615 6.41549C13.3615 6.06479 13.6396 5.78169 13.9831 5.78169H15.0209C15.3644 5.78169 15.6436 6.06479 15.6436 6.41549ZM5.52517 6.41549C5.52517 6.7662 5.24704 7.0493 4.9025 7.0493H3.86471C3.52017 7.0493 3.24308 6.7662 3.24308 6.41549C3.24308 6.06479 3.52017 5.78169 3.86471 5.78169H4.9025C5.24704 5.78169 5.52517 6.06479 5.52517 6.41549ZM11.5184 6.41549C11.5184 7.58169 10.5896 8.52817 9.4428 8.52817C8.29709 8.52817 7.36723 7.58169 7.36723 6.41549C7.36723 5.2493 8.29709 4.30282 9.4428 4.30282C10.5896 4.30282 11.5184 5.2493 11.5184 6.41549ZM20.7557 13.8099C20.7557 14.0391 20.5647 14.2324 20.3395 14.2324H4.77277C4.54861 14.2324 4.35766 14.0391 4.35766 13.8099V12.331H17.2262C18.1415 12.331 18.8866 11.5736 18.8866 10.6408V4.93662H20.3395C20.5647 4.93662 20.7557 5.12993 20.7557 5.35916V13.8099ZM1.65942 11.0634C1.43111 11.0634 1.2443 10.8743 1.2443 10.6408V2.19014C1.2443 1.95669 1.43111 1.76761 1.65942 1.76761H17.2262C17.4555 1.76761 17.6423 1.95669 17.6423 2.19014V10.6408C17.6423 10.8743 17.4555 11.0634 17.2262 11.0634H1.65942ZM20.3395 3.66901H18.8866V2.19014C18.8866 1.25739 18.1415 0.5 17.2262 0.5H1.65942C0.744092 0.5 0 1.25739 0 2.19014V10.6408C0 11.5736 0.744092 12.331 1.65942 12.331H3.11335V13.8099C3.11335 14.7426 3.85745 15.5 4.77277 15.5H20.3395C21.2549 15.5 22 14.7426 22 13.8099V5.35915C22 4.42641 21.2549 3.66901 20.3395 3.66901Z" fill="#4995EC"/>
</g>
<defs>
<clipPath id="clip0_172_16">
<rect width="22" height="15" fill="white" transform="translate(0 0.5)"/>
</clipPath>
</defs>
</svg>
