<svg width="19" height="23" viewBox="0 0 19 23" fill="none" xmlns="http://www.w3.org/2000/svg">
<g clip-path="url(#clip0_172_38)">
<path fill-rule="evenodd" clip-rule="evenodd" d="M8.77515 21.3036V13.9372C8.77515 13.3219 8.26702 12.8207 7.64317 12.8207L1.25313 12.9037L10.2248 1.69586V9.06224C10.2248 9.67757 10.733 10.1788 11.3568 10.1788L17.7469 10.0957L8.77515 21.3036ZM18.8789 9.61013C18.6758 9.19299 18.2571 8.93357 17.7879 8.93357H11.4873V1.69586C11.4873 1.18117 11.1696 0.739128 10.6772 0.568952C10.1859 0.398774 9.65675 0.550274 9.33062 0.949774L0.266324 12.1265C-0.027193 12.4876 -0.0818986 12.9722 0.121144 13.3893C0.324186 13.8064 0.742894 14.0659 1.2121 14.0659H7.51271V21.3036C7.51271 21.8183 7.83043 22.2603 8.32278 22.4305C8.45744 22.4772 8.59525 22.5 8.73097 22.5C9.08866 22.5 9.43267 22.3412 9.66938 22.0497L18.7337 10.874C19.0272 10.5119 19.0819 10.0283 18.8789 9.61013Z" fill="#4995EC"/>
</g>
<defs>
<clipPath id="clip0_172_38">
<rect width="19" height="22" fill="white" transform="translate(0 0.5)"/>
</clipPath>
</defs>
</svg>
