<svg width="25" height="19" viewBox="0 0 25 19" fill="none" xmlns="http://www.w3.org/2000/svg">
<g clip-path="url(#clip0_172_77)">
<path fill-rule="evenodd" clip-rule="evenodd" d="M20.8058 11.8855C20.8058 13.0827 19.8412 14.0542 18.6504 14.0542C17.4607 14.0542 16.4951 13.0827 16.4951 11.8855C16.4951 10.6884 17.4607 9.71687 18.6504 9.71687C19.8412 9.71687 20.8058 10.6884 20.8058 11.8855ZM8.59145 11.8855C8.59145 12.2455 8.30156 12.5361 7.94485 12.5361H6.8133V13.6747C6.8133 14.0336 6.52448 14.3253 6.1667 14.3253C5.80891 14.3253 5.5201 14.0336 5.5201 13.6747V12.5361H4.38854C4.03076 12.5361 3.74194 12.2455 3.74194 11.8855C3.74194 11.5255 4.03076 11.2349 4.38854 11.2349H5.5201V10.0964C5.5201 9.73639 5.80891 9.44578 6.1667 9.44578C6.52448 9.44578 6.8133 9.73639 6.8133 10.0964V11.2349H7.94485C8.30156 11.2349 8.59145 11.5255 8.59145 11.8855ZM23.6066 12.9493C23.2111 15.0084 21.5655 16.6718 19.5104 17.0882C17.6536 17.4655 15.786 16.8551 14.5197 15.4563C14.1447 15.042 13.6511 14.8133 13.1306 14.8133H11.8697C11.3503 14.8133 10.8578 15.041 10.4838 15.4552C9.48161 16.5634 8.05585 17.1988 6.57406 17.1988C5.09011 17.1988 3.66435 16.5634 2.66535 15.4563C1.65126 14.334 1.17385 12.8788 1.31826 11.3586C1.57475 8.67482 3.99627 6.57229 6.83162 6.57229H18.4284C20.0094 6.57229 21.4944 7.27711 22.5031 8.50675C23.5107 9.7353 23.9127 11.3542 23.6066 12.9493ZM23.4999 7.6794C22.2455 6.14831 20.3973 5.27108 18.4284 5.27108H13.1478V1.1506C13.1478 0.790602 12.8579 0.5 12.5012 0.5C12.1435 0.5 11.8546 0.790602 11.8546 1.1506V5.27108H6.83162C3.33781 5.27108 0.350514 7.88976 0.0315235 11.2339C-0.148447 13.1239 0.446426 14.9347 1.7073 16.3313C2.95201 17.7095 4.72585 18.5 6.57406 18.5C8.41903 18.5 10.1929 17.7095 11.4408 16.3313C11.513 16.25 11.6671 16.1145 11.8697 16.1145H13.1306C13.3354 16.1145 13.4884 16.25 13.5627 16.3324C14.8322 17.7345 16.5835 18.5 18.4241 18.5C18.8681 18.5 19.3175 18.4555 19.7669 18.3645C22.3296 17.844 24.3825 15.7675 24.8761 13.1954C25.2555 11.2187 24.7543 9.20723 23.4999 7.6794Z" fill="#4995EC"/>
</g>
<defs>
<clipPath id="clip0_172_77">
<rect width="25" height="18" fill="white" transform="translate(0 0.5)"/>
</clipPath>
</defs>
</svg>
