<svg width="22" height="24" viewBox="0 0 22 24" fill="none" xmlns="http://www.w3.org/2000/svg">
<g clip-path="url(#clip0_172_69)">
<path fill-rule="evenodd" clip-rule="evenodd" d="M21.9198 11.6954C21.8877 11.6271 21.8499 11.5622 21.7937 11.5052L17.7224 7.45841C17.4542 7.19197 17.0188 7.1931 16.7495 7.45728C16.4814 7.72486 16.4814 8.15756 16.7484 8.42401L19.6589 11.3174H7.56289C7.1836 11.3174 6.87536 11.6237 6.87536 12.0006C6.87536 12.3775 7.1836 12.6826 7.56289 12.6826H19.6349L16.7243 15.576C16.455 15.8424 16.455 16.2751 16.7243 16.5416C16.8584 16.6748 17.0337 16.742 17.2102 16.742C17.3855 16.742 17.5608 16.6748 17.6949 16.5416L21.7399 12.5232C21.8957 12.3968 22 12.2135 22 12.0006C22 11.889 21.9679 11.7888 21.9198 11.6954ZM13.9787 17.1246V18.2633C13.9787 21.1509 11.6148 23.5 8.70879 23.5H1.83343C0.822751 23.5 0 22.6824 0 21.6793V2.32187C0 1.31756 0.822751 0.5 1.83343 0.5H8.70879C11.6148 0.5 13.9787 2.84908 13.9787 5.73788V6.87655C13.9787 7.25345 13.6716 7.55862 13.2924 7.55862C12.9131 7.55862 12.6048 7.25345 12.6048 6.87655V5.73788C12.6048 3.60288 10.8573 1.86527 8.70879 1.86527H1.83343C1.58477 1.86527 1.37393 2.07478 1.37393 2.32187V21.6793C1.37393 21.9252 1.58477 22.1347 1.83343 22.1347H8.70879C10.8573 22.1347 12.6048 20.3983 12.6048 18.2633V17.1246C12.6048 16.7477 12.9131 16.4414 13.2924 16.4414C13.6716 16.4414 13.9787 16.7477 13.9787 17.1246Z" fill="#4995EC"/>
</g>
<defs>
<clipPath id="clip0_172_69">
<rect width="22" height="23" fill="white" transform="translate(0 0.5)"/>
</clipPath>
</defs>
</svg>
